<svg xmlns="http://www.w3.org/2000/svg" width="200" height="200" fill="none"><g><path fill="#ff2351" d="M148.406 36.616c2.735.828 5.523 1.548 8.204 2.508q17.108 6.057 30.336 17.582 1.91 1.905 2.283 4.453c2.549 14.126-1.327 27.015-10.103 38.669-12.121 16.058-29.074 25.671-50.09 29.32a133 133 0 0 1-14.736 1.2 20.5 20.5 0 0 1-3.478-.396v-.444c1.673-.66 3.345-1.284 4.992-1.981 18.002-7.597 29.804-20.234 35.937-37.12 6.2-17.127 4.74-34.06-2.655-50.683l-1.155-2.592z"/><path fill="#000b34" d="M63.68 30.303c1.871-1.5 3.703-3.06 5.641-4.5q14.337-10.498 31.955-15.447 2.976-.846 5.855.24 15.898 5.295 25.755 17.75c12.586 15.53 16.131 32.98 13.011 51.751q-2.173 13.09-10.037 24.255a6.1 6.1 0 0 1-2.071 1.909q-.06-.888 0-1.777c3.346-24.063-6.532-43.145-27.003-58.075-11.948-8.713-25.875-13.358-41.01-15.218-.623-.072-1.247-.192-1.871-.276zm2.654 63.368c-.146 1.284-.279 2.556-.438 3.84-1.898 14.522 1.965 27.796 10.714 39.99q6.91 9.61 17.033 16.514 17.53 12.045 39.363 14.642c1.088.144 2.164.324 3.239.48l.199.564c-2.243 1.764-4.434 3.6-6.744 5.269q-14.28 10.088-31.636 14.809-3.135.696-5.988-.672-10.002-3.471-17.887-10.029-7.884-6.56-12.541-15.282c-12.108-21.867-11.763-43.83.743-65.552.956-1.669 2.244-3.18 3.372-4.801z"/><path fill="#0AC1CF" d="M15.315 94.163a64.5 64.5 0 0 1-2.828-16.574 77.6 77.6 0 0 1 2.655-24.387 4.45 4.45 0 0 1 1.328-2.136q10.29-8.842 24.189-11.45c19.09-3.924 36.867-.54 53.515 8.401q17.583 9.168 27.428 25.215c.518.84.942 1.729 1.327 2.605q.12.462.107.936a8.3 8.3 0 0 1-1.328-.624C97.798 59.73 72.322 58.89 45.85 70.436c-11.683 5.065-21.043 12.77-28.876 21.975-.438.504-.916.972-1.66 1.752m61.852 29.104c2.337 1.476 4.607 3.048 7.01 4.428q9.108 5.384 19.666 7.766a70.6 70.6 0 0 0 21.396 1.5c23.592-1.789 42.231-11.882 56.914-28.396.664-.744 1.328-1.476 2.284-2.484q.56.903.929 1.884a72.9 72.9 0 0 1 1.938 24.855c-.438 4.081-1.327 8.125-1.898 12.194q-.562 3.482-3.717 5.544c-12.506 9.086-26.951 12.482-42.616 11.21C114.883 159.8 95.7 149.454 81.6 131.56a88 88 0 0 1-5.058-7.885z"/><path fill="#ff2351" d="M89.076 70.532c-1.819.732-3.651 1.416-5.443 2.196-17.126 7.37-28.49 19.383-34.876 35.417q-6.263 16.04-3.638 32.884 1.548 10.587 6.2 20.403c.2.432.345.876.65 1.656a13 13 0 0 1-2.137-.228q-17.754-4.973-32.008-15.758c-1.328-.96-2.43-2.112-3.797-2.94-2.376-1.429-3.013-3.601-3.398-5.881-2.244-13.91 1.606-26.56 10.156-38.033 10.912-14.642 26.233-23.847 44.978-28.504A73.6 73.6 0 0 1 87.416 69.8q.852.093 1.686.276z"/><animateTransform attributeName="transform" attributeType="XML" dur="18.8s" from="0 100 100" repeatCount="indefinite" to="360 100 100" type="rotate"/></g></svg>